<svg width="499" height="449" viewBox="0 0 499 449" fill="none" xmlns="http://www.w3.org/2000/svg">
<path d="M498 224.316H249.5L125.25 1H373.75L498 224.316Z" stroke="#B8B8B8" stroke-miterlimit="10" stroke-linejoin="round"/>
<path d="M498 224.316H249.5L125.25 448H373.75L498 224.316Z" stroke="#B8B8B8" stroke-miterlimit="10" stroke-linejoin="round"/>
<path d="M175.87 92.2395H322.776L396.405 224.316L322.776 356.76H175.87L102.241 224.316L175.87 92.2395Z" fill="black"/>
<path d="M125.25 1H373.75L498 224.316L373.75 448H125.25L1 224.316L125.25 1Z" stroke="#B8B8B8" stroke-miterlimit="10" stroke-linejoin="round"/>
<path d="M373.75 1L249.5 224.316L373.75 448L498 224.316L373.75 1Z" stroke="#B8B8B8" stroke-miterlimit="10" stroke-linejoin="round"/>
<path d="M249.5 224.316H1L125.25 448H373.75L249.5 224.316Z" stroke="#B8B8B8" stroke-miterlimit="10" stroke-linecap="round" stroke-linejoin="round"/>
</svg>
